<svg xmlns="http://www.w3.org/2000/svg" width="40" height="40" fill="none" viewBox="0 0 40 40"><path fill="#FF5A30" fill-rule="evenodd" d="M36.539 17.611a12.9 12.9 0 0 1-1.634 4.645q.095.535.095 1.077c0 1.255-.364 2.456-1.037 3.547-.337.544-.423 1.182-.456 1.604-.038.483-.026 1.012.009 1.52.039.57.109 1.168.189 1.732-.65-.19-1.356-.38-2.029-.532a15 15 0 0 0-1.65-.288c-.453-.046-1.107-.082-1.692.107a13.6 13.6 0 0 1-4.168.643c-1.763 0-3.382-.312-4.802-.856q-.512.023-1.031.023a22 22 0 0 1-5.748-.752C15.213 33.121 19.546 35 24.166 35c1.805 0 3.537-.277 5.134-.786h.015a3 3 0 0 1 .368.018c.334.035.764.112 1.26.224a38 38 0 0 1 2.961.825c1.834.583 3.61-1.018 3.283-2.878-.141-.801-.288-1.778-.345-2.625a7.4 7.4 0 0 1-.012-1.032q.014-.157.026-.208c.937-1.553 1.477-3.322 1.477-5.205 0-2.122-.66-4.06-1.794-5.722" clip-rule="evenodd"/><path fill="#FF5A30" fill-rule="evenodd" d="M9.328 9.497c-2.247 1.718-3.495 3.973-3.495 6.336 0 1.178.306 2.313.882 3.369.22.402.281.816.304 1.097.024.306.012.62-.015.915-.053.589-.18 1.256-.333 1.913a39 39 0 0 1-.639 2.359c.88-.32 1.843-.648 2.755-.914a18 18 0 0 1 2.145-.507c.57-.09 1.4-.179 2.112.068 1.6.554 3.391.867 5.289.867 3.578 0 6.757-1.111 9.005-2.83 2.246-1.719 3.495-3.974 3.495-6.337s-1.249-4.618-3.495-6.336c-2.248-1.72-5.427-2.83-9.005-2.83s-6.757 1.11-9.005 2.83M7.303 6.849c2.88-2.202 6.784-3.516 11.03-3.516s8.15 1.314 11.03 3.516 4.803 5.364 4.803 8.984-1.923 6.781-4.804 8.984c-2.879 2.202-6.784 3.516-11.03 3.516-2.238 0-4.376-.365-6.317-1.029-.002.006-.16-.01-.563.054-.464.073-1.057.217-1.731.414-1.343.392-2.85.946-3.998 1.393-1.99.774-4.016-1.137-3.346-3.172.355-1.079.774-2.442 1.047-3.619.138-.593.227-1.091.26-1.46a3 3 0 0 0 .014-.285A10.3 10.3 0 0 1 2.5 15.833c0-3.62 1.923-6.781 4.804-8.984m-3.61 13.689.002.014z" clip-rule="evenodd"/></svg>