<svg xmlns="http://www.w3.org/2000/svg" width="40" height="40" fill="none" viewBox="0 0 40 40"><path fill="#FF5A30" fill-rule="evenodd" d="M14.166 4.87a2.5 2.5 0 0 0-2.5 2.5v25.26a2.5 2.5 0 0 0 2.5 2.5h11.667a2.5 2.5 0 0 0 2.5-2.5V7.37a2.5 2.5 0 0 0-2.5-2.5h-.139l-.406.974a1.67 1.67 0 0 1-1.538 1.025h-7.5c-.673 0-1.28-.404-1.539-1.025l-.406-.975zm-5.833 2.5a5.833 5.833 0 0 1 5.833-5.834h11.667a5.833 5.833 0 0 1 5.833 5.833v25.26a5.833 5.833 0 0 1-5.833 5.834H14.166a5.833 5.833 0 0 1-5.833-5.833z" clip-rule="evenodd"/></svg>